<svg width="25" height="24" viewBox="0 0 25 24" fill="none" xmlns="http://www.w3.org/2000/svg">
<g clip-path="url(#clip0_104_943)">
<path d="M12.492 12.4873C15.456 12.4873 18.4201 12.4873 21.3841 12.4873C21.8395 12.4873 21.9513 12.6071 21.9034 13.0625C21.6877 15.2277 21.464 17.3848 21.2483 19.5499C21.1764 20.2689 21.1444 21.004 20.9367 21.707C20.5532 23.0093 19.6264 23.7763 18.2762 23.936C17.9167 23.976 17.5572 23.992 17.2057 23.992C14.0099 23.992 10.8142 23.992 7.61846 23.992C7.01926 23.992 6.42805 23.9201 5.8608 23.7203C4.78224 23.3288 4.23098 22.498 3.9913 21.4194C3.77558 20.4447 3.74363 19.446 3.63178 18.4553C3.48797 17.185 3.36813 15.9147 3.23231 14.6524C3.17638 14.0852 3.11247 13.5259 3.06453 12.9587C3.03257 12.6391 3.19236 12.4953 3.55987 12.4953C5.91673 12.4953 8.27359 12.4953 10.6304 12.4953C11.2536 12.4873 11.8768 12.4873 12.492 12.4873ZM12.5 15.2356C12.1085 14.3968 11.4933 13.9414 10.5985 13.9973C9.72765 14.0452 9.06453 14.6045 8.80887 15.4753C8.46533 16.6577 8.74496 17.7443 9.43204 18.727C10.183 19.7976 11.2137 20.5406 12.3561 21.1398C12.468 21.1957 12.5559 21.1797 12.6597 21.1238C13.6105 20.6284 14.4813 20.0053 15.1844 19.1904C16.0153 18.2316 16.4627 17.1371 16.2709 15.8428C16.1191 14.7962 15.3601 14.0292 14.3615 13.9813C13.4826 13.9573 12.8834 14.4047 12.5 15.2356Z" fill="#339DFF"/>
<path d="M16.9818 6.06393C16.5104 5.28097 16.063 4.52198 15.6156 3.763C15.1842 3.04395 14.7767 2.31692 14.3293 1.61386C13.9219 0.974713 14.2015 0.383501 14.601 0.15181C15.0963 -0.135807 15.6476 0.0399591 15.9831 0.607203C17.0217 2.34888 18.0683 4.09056 19.099 5.84023C19.2108 6.03197 19.3307 6.0879 19.5464 6.0879C20.3373 6.09588 21.1203 6.01599 21.9112 6.13583C23.1176 6.31959 24.0204 7.41413 24.0124 8.66846C24.0124 9.89881 23.1016 10.9854 21.9112 11.1691C21.7275 11.2011 21.5357 11.225 21.344 11.225C15.4558 11.225 9.56768 11.225 3.67154 11.225C2.36129 11.225 1.31469 10.4101 1.05903 9.20374C0.723474 7.60587 1.88193 6.12784 3.51975 6.0879C4.19085 6.07192 4.85397 6.07991 5.52507 6.0879C5.70883 6.0879 5.8047 6.03197 5.90057 5.87218C6.95516 4.09855 8.02574 2.3329 9.09631 0.559267C9.31202 0.191757 9.61562 -0.0239557 10.047 0.0080017C10.7901 0.0559378 11.1815 0.830904 10.798 1.48603C10.3107 2.31692 9.79937 3.13983 9.30403 3.97072C8.88859 4.6578 8.47314 5.34489 8.03373 6.07192C11.0217 6.06393 13.9778 6.06393 16.9818 6.06393Z" fill="#339DFF"/>
</g>
<defs>
<clipPath id="clip0_104_943">
<rect width="23.0093" height="24" fill="white" transform="translate(0.995117)"/>
</clipPath>
</defs>
</svg>
