<svg width="24" height="25" viewBox="0 0 24 25" fill="none" xmlns="http://www.w3.org/2000/svg">
<g clip-path="url(#clip0_104_740)">
<path d="M11.4967 12.9873C14.4608 12.9873 17.4248 12.9873 20.3889 12.9873C20.8443 12.9873 20.9561 13.1071 20.9082 13.5625C20.6925 15.7277 20.4688 17.8848 20.253 20.0499C20.1811 20.7689 20.1492 21.504 19.9415 22.207C19.558 23.5093 18.6312 24.2763 17.281 24.436C16.9215 24.476 16.562 24.492 16.2104 24.492C13.0147 24.492 9.81896 24.492 6.62322 24.492C6.02402 24.492 5.43281 24.4201 4.86556 24.2203C3.787 23.8288 3.23574 22.998 2.99606 21.9194C2.78035 20.9447 2.74839 19.946 2.63654 18.9553C2.49273 17.685 2.37289 16.4147 2.23707 15.1524C2.18114 14.5852 2.11723 14.0259 2.06929 13.4587C2.03734 13.1391 2.19712 12.9953 2.56463 12.9953C4.92149 12.9953 7.27835 12.9953 9.6352 12.9953C10.2584 12.9873 10.8815 12.9873 11.4967 12.9873ZM11.5047 15.7356C11.1132 14.8968 10.4981 14.4414 9.60325 14.4973C8.73241 14.5452 8.06929 15.1045 7.81363 15.9753C7.47009 17.1577 7.74972 18.2443 8.4368 19.227C9.1878 20.2976 10.2184 21.0406 11.3609 21.6398C11.4728 21.6957 11.5606 21.6797 11.6645 21.6238C12.6152 21.1284 13.4861 20.5053 14.1891 19.6904C15.02 18.7316 15.4674 17.6371 15.2757 16.3428C15.1239 15.2962 14.3649 14.5292 13.3662 14.4813C12.4874 14.4573 11.8882 14.9047 11.5047 15.7356Z" fill="black"/>
<path d="M15.9867 6.56393C15.5153 5.78097 15.0679 5.02198 14.6205 4.263C14.1891 3.54395 13.7816 2.81692 13.3342 2.11386C12.9268 1.47471 13.2064 0.883501 13.6059 0.65181C14.1012 0.364193 14.6525 0.539959 14.988 1.1072C16.0266 2.84888 17.0732 4.59056 18.1039 6.34023C18.2157 6.53197 18.3355 6.5879 18.5513 6.5879C19.3422 6.59588 20.1252 6.51599 20.9161 6.63583C22.1225 6.81959 23.0253 7.91413 23.0173 9.16846C23.0173 10.3988 22.1065 11.4854 20.9161 11.6691C20.7323 11.7011 20.5406 11.725 20.3489 11.725C14.4607 11.725 8.57256 11.725 2.67643 11.725C1.36617 11.725 0.319568 10.9101 0.063909 9.70374C-0.271644 8.10587 0.886812 6.62784 2.52463 6.5879C3.19573 6.57192 3.85885 6.57991 4.52995 6.5879C4.71371 6.5879 4.80958 6.53197 4.90545 6.37218C5.96005 4.59855 7.03062 2.8329 8.10119 1.05927C8.31691 0.691757 8.6205 0.476044 9.05193 0.508002C9.79494 0.555938 10.1864 1.3309 9.80292 1.98603C9.31557 2.81692 8.80426 3.63983 8.30892 4.47072C7.89347 5.1578 7.47802 5.84489 7.03861 6.57192C10.0266 6.56393 12.9827 6.56393 15.9867 6.56393Z" fill="black"/>
</g>
<defs>
<clipPath id="clip0_104_740">
<rect width="23.0093" height="24" fill="white" transform="translate(0 0.5)"/>
</clipPath>
</defs>
</svg>
