<svg width="23" height="24" viewBox="0 0 23 24" fill="none" xmlns="http://www.w3.org/2000/svg">
<path d="M9.64 16.6458C9.53333 16.6458 9.43333 16.6283 9.34 16.5933C9.24667 16.5589 9.16 16.5 9.08 16.4166L5.64 12.8333C5.49333 12.6805 5.4232 12.4825 5.4296 12.2391C5.43653 11.9964 5.51333 11.7986 5.66 11.6458C5.80667 11.493 5.99333 11.4166 6.22 11.4166C6.44667 11.4166 6.63333 11.493 6.78 11.6458L9.64 14.625L16.42 7.56246C16.5667 7.40969 16.7568 7.3333 16.9904 7.3333C17.2235 7.3333 17.4133 7.40969 17.56 7.56246C17.7067 7.71524 17.78 7.91302 17.78 8.1558C17.78 8.39913 17.7067 8.59719 17.56 8.74996L10.2 16.4166C10.12 16.5 10.0333 16.5589 9.94 16.5933C9.84667 16.6283 9.74667 16.6458 9.64 16.6458Z" fill="#2B2B3F"/>
<rect x="1.2" y="1.2" width="20.8" height="21.6" rx="10.4" stroke="#2B2B3F" stroke-width="1.6"/>
</svg>
