<svg width="138" height="57" viewBox="0 0 138 57" fill="none" xmlns="http://www.w3.org/2000/svg">
<path d="M9.03049 42V30.54H22.0949V24.7183H9.03049V17.1089H24.7078V11.2872H2.47536V42H9.03049ZM36.6495 42.4584C41.6919 42.4584 44.7173 40.2581 46.4134 37.8286L42.4253 33.8405C41.6002 35.7658 39.9041 37.141 36.7412 37.141C33.8074 37.141 31.6988 35.6282 31.2862 32.4653H46.5968C46.7343 31.961 46.826 30.6775 46.826 29.7149C46.826 23.8473 43.2504 19.08 36.0994 19.08C29.4984 19.08 25.1436 23.8473 25.1436 30.7692C25.1436 37.691 29.4984 42.4584 36.6495 42.4584ZM36.1452 24.1224C39.079 24.1224 40.6834 25.7268 40.9126 28.7064H31.2862C31.6071 25.6809 33.349 24.1224 36.1452 24.1224ZM55.4532 42.5042C60.0372 42.5042 62.0083 39.1121 62.7418 36.1783V37.691C62.7418 40.8998 64.9421 42 67.3716 42H71.2222V36.7742H69.8928C69.0677 36.7742 68.701 36.4534 68.701 35.4449V27.7437C68.701 22.1054 65.4005 19.08 59.7163 19.08C54.9031 19.08 51.1901 21.3261 48.9439 23.7557L52.2444 28.523C53.803 26.2769 56.4159 24.6725 59.2579 24.6725C61.7333 24.6725 62.6043 25.7268 62.8335 27.6062L55.9575 30.1733C51.6943 31.6401 49.5398 33.6113 49.5398 37.0034C49.5398 40.6248 51.9694 42.5042 55.4532 42.5042ZM55.5907 36.0408C55.5907 35.1698 56.1867 34.5281 57.9744 33.7946L62.7418 31.8235V33.3821C62.7418 36.1325 60.9999 37.691 57.8827 37.691C56.3242 37.691 55.5907 37.0951 55.5907 36.0408ZM82.6758 42.4584C86.1138 42.4584 88.4058 40.854 89.3684 39.6163L87.489 34.253C86.8014 35.4907 85.5637 36.6367 84.1426 36.6367C82.8591 36.6367 81.9423 35.995 81.9423 34.1614V24.5349H88.1766V19.5384H81.9423V13.4416L75.3872 16.8797V19.5384H72.0409V24.5349H75.3872V35.3532C75.3872 39.5246 77.725 42.4584 82.6758 42.4584ZM98.8709 42V11.2872H92.3158V42H98.8709ZM110.062 42V11.2872H103.507V42H110.062ZM120.383 50.2512C124.6 50.2512 127.396 48.3718 129.138 43.3752L137.206 19.5384H129.826L126.663 30.1274L124.967 37.6452L123.317 30.1274L120.108 19.5384H112.865L120.154 40.5331H124.142L123.683 41.725C122.95 43.8794 121.941 44.4754 120.199 44.4754C118.228 44.4754 116.578 43.3294 115.157 41.6791L112.544 47.1799C114.103 48.7843 116.991 50.2512 120.383 50.2512Z" fill="black"/>
<rect x="2.55872" y="2.13135" width="6.39466" height="5.75519" fill="black"/>
</svg>
