<svg width="75" height="31" viewBox="0 0 75 31" fill="none" xmlns="http://www.w3.org/2000/svg">
<path d="M4.91132 23V16.7674H12.0165V13.6012H4.91132V9.46271H13.4376V6.29653H1.34625V23H4.91132ZM19.9322 23.2493C22.6745 23.2493 24.32 22.0526 25.2424 20.7313L23.0734 18.5624C22.6247 19.6094 21.7022 20.3574 19.982 20.3574C18.3865 20.3574 17.2397 19.5347 17.0153 17.8144H25.3421C25.4169 17.5402 25.4668 16.8422 25.4668 16.3186C25.4668 13.1275 23.5222 10.5347 19.633 10.5347C16.043 10.5347 13.6746 13.1275 13.6746 16.892C13.6746 20.6565 16.043 23.2493 19.9322 23.2493ZM19.6579 13.2771C21.2535 13.2771 22.1261 14.1497 22.2507 15.7701H17.0153C17.1898 14.1247 18.1372 13.2771 19.6579 13.2771ZM30.1588 23.2742C32.6518 23.2742 33.7238 21.4294 34.1227 19.8338V20.6565C34.1227 22.4017 35.3194 23 36.6407 23H38.7349V20.1579H38.0119C37.5631 20.1579 37.3637 19.9834 37.3637 19.4349V15.2466C37.3637 12.1801 35.5687 10.5347 32.4773 10.5347C29.8596 10.5347 27.8402 11.7563 26.6186 13.0776L28.4136 15.6704C29.2613 14.4488 30.6823 13.5762 32.228 13.5762C33.5743 13.5762 34.0479 14.1497 34.1726 15.1718L30.433 16.5679C28.1145 17.3657 26.9427 18.4377 26.9427 20.2826C26.9427 22.2521 28.264 23.2742 30.1588 23.2742ZM30.2336 19.759C30.2336 19.2853 30.5577 18.9363 31.5299 18.5374L34.1227 17.4654V18.3131C34.1227 19.8089 33.1754 20.6565 31.4801 20.6565C30.6324 20.6565 30.2336 20.3324 30.2336 19.759ZM44.964 23.2493C46.8338 23.2493 48.0803 22.3767 48.6039 21.7036L47.5817 18.7867C47.2078 19.4599 46.5346 20.0831 45.7618 20.0831C45.0637 20.0831 44.5651 19.7341 44.5651 18.7369V13.5015H47.9557V10.784H44.5651V7.46826L41.0001 9.33805V10.784H39.1801V13.5015H41.0001V19.3851C41.0001 21.6537 42.2715 23.2493 44.964 23.2493ZM53.7719 23V6.29653H50.2068V23H53.7719ZM59.8585 23V6.29653H56.2934V23H59.8585ZM65.4713 27.4875C67.765 27.4875 69.2857 26.4653 70.2331 23.7479L74.6209 10.784H70.607L68.8868 16.543L67.9644 20.6316L67.0669 16.543L65.3218 10.784H61.3827L65.3467 22.2022H67.5156L67.2663 22.8504C66.8675 24.0222 66.319 24.3463 65.3716 24.3463C64.2996 24.3463 63.4021 23.723 62.6293 22.8255L61.2082 25.8172C62.0559 26.6897 63.6265 27.4875 65.4713 27.4875Z" fill="#339DFF"/>
<rect x="1.39111" y="1.15918" width="3.4778" height="3.13002" fill="#339DFF"/>
</svg>
