<svg width="20" height="25" viewBox="0 0 20 25" fill="none" xmlns="http://www.w3.org/2000/svg">
<path d="M2.9411 24.5682L2.97841 24.5802H3.01761C7.76758 24.5802 12.5177 24.5802 17.2617 24.574L17.3891 24.5739L17.4219 24.5286L17.4318 24.5267C18.5395 24.322 19.4016 23.3879 19.4856 22.2729C19.5433 21.5577 19.5179 20.8329 19.382 20.1183C18.753 16.7724 16.8052 14.4657 13.6003 13.2461L13.5999 13.246C11.8198 12.572 9.95934 12.5696 8.14041 12.8633C6.04183 13.1996 4.29636 14.2168 2.91639 15.8051L2.91611 15.8054C1.37792 17.5819 0.71658 19.6585 0.761407 21.9629L0.761415 21.9632C0.781804 22.9348 1.18365 23.7129 2.03708 24.2353L2.03738 24.2355C2.19334 24.3307 2.35562 24.3918 2.50788 24.4399C2.58042 24.4629 2.65329 24.4836 2.72223 24.5033L2.73193 24.506C2.80497 24.5268 2.87378 24.5465 2.9411 24.5682Z" fill="black" stroke="black" stroke-width="0.5"/>
<path d="M10.7772 0.430516L10.742 0.419922H10.7052H10.7029H10.7006H10.6983H10.696H10.6936H10.6913H10.689H10.6867H10.6844H10.6821H10.6798H10.6775H10.6752H10.6729H10.6706H10.6683H10.666H10.6637H10.6614H10.6591H10.6568H10.6545H10.6522H10.6498H10.6475H10.6452H10.6429H10.6406H10.6383H10.636H10.6337H10.6314H10.6291H10.6268H10.6245H10.6222H10.6199H10.6176H10.6153H10.613H10.6107H10.6084H10.6061H10.6038H10.6015H10.5992H10.5969H10.5946H10.5923H10.59H10.5877H10.5854H10.5831H10.5808H10.5785H10.5762H10.5739H10.5716H10.5693H10.567H10.5647H10.5624H10.5601H10.5578H10.5555H10.5532H10.5509H10.5486H10.5463H10.544H10.5417H10.5394H10.5371H10.5348H10.5325H10.5302H10.5279H10.5256H10.5233H10.521H10.5187H10.5164H10.5141H10.5118H10.5095H10.5072H10.5049H10.5026H10.5003H10.4981H10.4958H10.4935H10.4912H10.4889H10.4866H10.4843H10.482H10.4797H10.4774H10.4751H10.4728H10.4705H10.4682H10.4659H10.4636H10.4613H10.459H10.4567H10.4544H10.4521H10.4498H10.4475H10.4453H10.443H10.4407H10.4384H10.4361H10.4338H10.4315H10.4292H10.4269H10.4246H10.4223H10.42H10.4177H10.4154H10.4131H10.4108H10.4086H10.4063H10.404H10.4017H10.3994H10.3971H10.3948H10.3925H10.3902H10.3879H10.3856H10.3833H10.381H10.3787H10.3765H10.3742H10.3719H10.3696H10.3673H10.365H10.3627H10.3604H10.3581H10.3558H10.3535H10.3512H10.3489H10.3467H10.3444H10.3421H10.3398H10.3375H10.3352H10.3329H10.3306H10.3283H10.326H10.3237H10.3215H10.3192H10.3169H10.3146H10.3123H10.31H10.3077H10.3054H10.3031H10.3008H10.2985H10.2963H10.294H10.2917H10.2894H10.2871H10.2848H10.2825H10.2802H10.2779H10.2756H10.2733H10.2711H10.2688H10.2665H10.2642H10.2619H10.2596H10.2573H10.255H10.2527H10.2505H10.2482H10.2459H10.2436H10.2413H10.239H10.2367H10.2344H10.2321H10.2298H10.2276H10.2253H10.223H10.2207H10.2184H10.2161H10.2138H10.2115H10.2092H10.207H10.2047H10.2024H10.2001H10.1978H10.1955H10.1932H10.1909H10.1886H10.1863H10.1841H10.1818H10.1795H10.1772H10.1749H10.1726H10.1703H10.168H10.1657H10.1635H10.1612H10.1589H10.1566H10.1543H10.152H10.1497H10.1474H10.1451H10.1429H10.1406H10.1383H10.136H10.1337H10.1314H10.1291H10.1268H10.1245H10.1223H10.12H10.1177H10.1154H10.1131H10.1108H10.1085H10.1062H10.1039H10.1017H10.0994H10.0971H10.0948H10.0925H10.0902H10.0879H10.0856H10.0833H10.0811H10.0788H10.0765H10.0742H10.0719H10.0696H10.0673H10.065H10.0627H10.0605H10.0582H10.0559H10.0536H10.0513H10.049H10.0467H10.0444H10.0421H10.0399H10.0376H10.0353H10.033H10.0307H10.0284H10.0261H10.0238H10.0215H10.0193H10.017H10.0147H10.0124H10.0101H10.0078H10.0055H10.0032H10.0009H9.99865H9.99636H9.99407H9.99178H9.98949H9.9872H9.98491H9.98262H9.98033H9.97804H9.97575H9.97346H9.97117H9.96888H9.96659H9.9643H9.96201H9.95972H9.95743H9.95514H9.95285H9.95056H9.94827H9.94598H9.94369H9.9414H9.93911H9.93682H9.93453H9.93224H9.92995H9.92766H9.92536H9.92307H9.92078H9.91849H9.9162H9.91391H9.91162H9.90933H9.90704H9.90475H9.90245H9.90016H9.89787H9.89558H9.89329H9.891H9.88871H9.88641H9.88412H9.88183H9.87954H9.87725H9.87496H9.87266H9.87037H9.86808H9.86579H9.86349H9.8612H9.85891H9.85662H9.85433H9.85203H9.84974H9.84745H9.84515H9.84286H9.84057H9.83828H9.83598H9.83369H9.8314H9.8291H9.82681H9.82452H9.82222H9.81993H9.81764H9.81534H9.81305H9.81076H9.80846H9.80617H9.80387H9.80158H9.79928H9.79699H9.7947H9.7924H9.79011H9.78781H9.78552H9.78322H9.78093H9.77863H9.77634H9.77404H9.77175H9.76945H9.76716H9.76486H9.76257H9.76027H9.75798H9.75568H9.75338H9.75109H9.74879H9.7465H9.7442H9.7419H9.73961H9.73731H9.73501H9.73272H9.73042H9.72812H9.72583H9.72353H9.72123H9.71894H9.71664H9.71434H9.71204H9.70975H9.70745H9.70515H9.70285H9.70055H9.69826H9.69596H9.69366H9.69136H9.68906H9.68676H9.68447H9.68217H9.67987H9.67757H9.67527H9.67297H9.67067H9.66837H9.66607H9.66377H9.66147H9.65917H9.65687H9.65457H9.65227H9.64997H9.64767H9.64537H9.64307H9.64077H9.63847H9.63617H9.63387H9.63156H9.62926H9.62696H9.62466H9.62236H9.62006H9.61775H9.61545H9.61315H9.61085H9.60854H9.60624H9.60394H9.60164H9.59933H9.59703H9.59473H9.59242H9.59012H9.58782H9.58551H9.58321H9.5809H9.5786H9.5763H9.57399H9.57169H9.56938H9.56708H9.56477H9.56247H9.56016H9.55786H9.55555H9.55325H9.55094H9.54863H9.54633H9.54402H9.54171H9.53941H9.5371H9.53479H9.53249H9.53018H9.46178L9.4029 0.454746C9.36634 0.476375 9.31833 0.490526 9.24162 0.502004C9.2245 0.504566 9.20138 0.507402 9.1749 0.510648C9.1117 0.518399 9.02942 0.528489 8.96418 0.542782L8.96418 0.542769L8.96167 0.543345C6.04952 1.2128 4.23759 3.84116 4.68937 6.75877L4.68941 6.75898C5.14905 9.71084 8.10838 11.7841 11.0864 11.2551C13.9557 10.746 15.8775 8.17323 15.6543 5.46154L15.6543 5.46118C15.471 3.27275 14.0103 1.4072 11.9095 0.703958L11.9094 0.703918C11.7089 0.636904 11.5061 0.594278 11.3176 0.555884C11.3044 0.553195 11.2913 0.550528 11.2782 0.547876C11.1005 0.511771 10.9365 0.478442 10.7772 0.430516Z" fill="black" stroke="black" stroke-width="0.5"/>
</svg>
