<svg width="80" height="80" viewBox="0 0 80 80" fill="none" xmlns="http://www.w3.org/2000/svg">
<path d="M1.70743 39.5207C1.70556 46.2423 3.47556 52.8054 6.84118 58.5902L1.38556 78.3552L21.7706 73.0516C27.4088 76.0972 33.726 77.6931 40.1456 77.6935H40.1624C61.3546 77.6935 78.6056 60.5824 78.6146 39.5508C78.6187 29.3595 74.6224 19.7762 67.3618 12.5663C60.1024 5.35694 50.4478 1.38453 40.1609 1.37988C18.9662 1.37988 1.7165 18.49 1.70775 39.5207" fill="url(#paint0_linear_104_755)"/>
<path d="M0.334375 39.5089C0.332188 46.4723 2.16562 53.2702 5.65125 59.2621L0 79.7356L21.1159 74.242C26.9341 77.3896 33.4847 79.0491 40.1503 79.0516H40.1675C62.12 79.0516 79.9906 61.325 80 39.5405C80.0038 28.983 75.8637 19.0552 68.3438 11.587C60.8228 4.1197 50.8228 0.00434109 40.1675 0C18.2112 0 0.343437 17.7241 0.334688 39.5089H0.334375ZM12.9094 58.2302L12.1209 56.9883C8.80656 51.7591 7.05719 45.7163 7.05969 39.5114C7.06687 21.4044 21.9181 6.67288 40.18 6.67288C49.0238 6.6766 57.335 10.0974 63.5863 16.3039C69.8372 22.511 73.2769 30.7622 73.2747 39.538C73.2666 57.645 58.415 72.3784 40.1675 72.3784H40.1544C34.2128 72.3753 28.3856 70.792 23.3037 67.8001L22.0944 67.0885L9.56375 70.3483L12.9094 58.2299V58.2302Z" fill="url(#paint1_linear_104_755)"/>
<path d="M30.2108 22.9914C29.4652 21.3471 28.6805 21.3139 27.9715 21.2851C27.3908 21.2603 26.7271 21.2621 26.064 21.2621C25.4002 21.2621 24.3218 21.5099 23.4102 22.4975C22.4977 23.486 19.9265 25.8748 19.9265 30.7334C19.9265 35.5924 23.493 40.2879 23.9902 40.9474C24.488 41.6057 30.8755 51.8953 40.9918 55.8538C49.3993 59.1434 51.1102 58.4891 52.9349 58.3242C54.7599 58.1598 58.8236 55.936 59.6527 53.6299C60.4824 51.3242 60.4824 49.3477 60.2336 48.9347C59.9849 48.5232 59.3211 48.2761 58.3258 47.7825C57.3302 47.2885 52.4371 44.8994 51.5249 44.5697C50.6124 44.2404 49.949 44.0761 49.2852 45.0649C48.6215 46.0522 46.7155 48.2761 46.1346 48.9347C45.5543 49.5949 44.9733 49.677 43.9783 49.1831C42.9824 48.6876 39.7771 47.646 35.9743 44.282C33.0155 41.6643 31.018 38.4318 30.4374 37.4429C29.8568 36.4556 30.3752 35.9204 30.8743 35.4283C31.3215 34.9859 31.8699 34.2752 32.368 33.6987C32.8643 33.122 33.0299 32.7105 33.3618 32.0519C33.694 31.3927 33.5277 30.8159 33.2793 30.322C33.0299 29.828 31.0958 24.9443 30.2108 22.9917" fill="white"/>
<defs>
<linearGradient id="paint0_linear_104_755" x1="40.0001" y1="78.3552" x2="40.0001" y2="1.37988" gradientUnits="userSpaceOnUse">
<stop stop-color="#1FAF38"/>
<stop offset="1" stop-color="#60D669"/>
</linearGradient>
<linearGradient id="paint1_linear_104_755" x1="40" y1="79.7356" x2="40" y2="0" gradientUnits="userSpaceOnUse">
<stop stop-color="#F9F9F9"/>
<stop offset="1" stop-color="white"/>
</linearGradient>
</defs>
</svg>
