<svg width="106" height="106" viewBox="0 0 106 106" fill="none" xmlns="http://www.w3.org/2000/svg">
<path d="M23 33.5625C23.0312 33.5313 23.0938 33.4844 23.1094 33.4375C23.7344 31.7656 24.8125 31 26.6094 31C29.9844 31 33.3594 31 36.7344 31C44.1094 31 51.4844 31 58.875 31C61.1094 31 62.4844 32.3906 62.4844 34.6094C62.4844 35.625 62.4844 36.6406 62.4844 37.6563C62.4844 38.5313 62.4844 38.5313 63.375 38.5313C66.9062 38.5313 70.4375 38.5313 73.9688 38.5313C76.3438 38.5313 77.4062 39.2344 78.3281 41.4063C79.7656 44.7656 81.1875 48.125 82.625 51.4844C82.75 51.7969 82.875 52.1094 83 52.4219C83 57.3906 83 62.3437 83 67.3125C82.8125 67.6406 82.6562 68 82.4375 68.3125C81.875 69.0781 81.0781 69.375 80.1562 69.3906C79.375 69.4063 78.5938 69.4063 77.8125 69.3906C77.5 69.3906 77.3438 69.4531 77.25 69.7969C76.5781 72.3437 74.3438 74.0781 71.7812 74.0781C69.2344 74.0625 67.0469 72.3594 66.3594 69.8438C66.2656 69.5 66.125 69.3906 65.7656 69.3906C58.5469 69.4063 51.3281 69.4063 44.1094 69.3906C43.75 69.3906 43.6094 69.5156 43.5312 69.8438C42.8281 72.375 40.6562 74.0781 38.0938 74.0781C35.5469 74.0781 33.2969 72.3437 32.6406 69.7969C32.5469 69.4375 32.375 69.3906 32.0781 69.4062C30.5 69.4219 28.9062 69.3437 27.3438 69.4219C25.2969 69.5312 23.7813 68.875 23.0312 66.8594C23 55.75 23 44.6563 23 33.5625ZM42.7656 32.9531C37.375 32.9531 31.9844 32.9531 26.5938 32.9531C25.3906 32.9531 24.875 33.4688 24.875 34.6563C24.875 45.0313 24.875 55.3906 24.875 65.7656C24.875 66.9688 25.375 67.4688 26.5781 67.4844C28.3906 67.4844 30.2031 67.4844 32.0312 67.5C32.4062 67.5 32.5469 67.4063 32.6406 67.0156C33.25 64.5781 35.5312 62.8281 38.0469 62.8125C40.5625 62.7813 42.8438 64.5156 43.4844 66.9531C43.6094 67.4063 43.7969 67.5 44.2344 67.5C49.4688 67.4844 54.7031 67.4844 59.9375 67.5C60.4844 67.5 60.5938 67.3437 60.5938 66.8281C60.5781 56.1875 60.5781 45.5469 60.5781 34.9062C60.5781 33.3906 60.1562 32.9844 58.625 32.9844C53.3438 32.9531 48.0469 32.9531 42.7656 32.9531ZM62.4844 53.9688C62.4844 58.2969 62.4844 62.6406 62.4688 66.9688C62.4688 67.375 62.5625 67.5 62.9844 67.4844C63.875 67.4531 64.7812 67.4531 65.6719 67.4844C66.1094 67.5 66.25 67.3438 66.3594 66.9375C66.9688 64.625 68.9375 63.0469 71.4531 62.7969C73.5938 62.5938 75.8594 63.9531 76.875 65.9844C77.125 66.4687 77.0156 67.2344 77.5469 67.4219C78.0625 67.6094 78.7031 67.4531 79.2812 67.4687C81.0938 67.5156 81.1406 67.375 81.1094 65.5937C81.1094 65.2969 81.0469 65.1875 80.7344 65.2031C80.1875 65.2344 79.6406 65.2187 79.0938 65.2031C78.1094 65.1875 77.375 64.5156 77.3281 63.5469C77.2812 62.3437 77.2812 61.125 77.3281 59.9219C77.3594 58.9688 78.1094 58.3281 79.0625 58.3125C79.5625 58.2969 80.0781 58.2812 80.5781 58.3125C80.9844 58.3437 81.1094 58.2344 81.0938 57.8125C81.0625 56.3906 81.0781 54.9688 81.0938 53.5313C81.0938 53.0781 81 52.6406 80.8281 52.2344C79.375 48.8281 77.9062 45.4219 76.4844 41.9844C76.0312 40.9062 75.2969 40.4531 74.1406 40.4531C70.4375 40.4844 66.7188 40.4688 63.0156 40.4531C62.5781 40.4531 62.4375 40.5313 62.4375 41.0156C62.5 45.3281 62.4844 49.6406 62.4844 53.9688ZM38.0938 64.7188C36.0156 64.7188 34.375 66.3437 34.3594 68.3906C34.3437 70.5 35.9844 72.1406 38.0625 72.1562C40.1562 72.1562 41.8125 70.5 41.8125 68.4219C41.7969 66.3438 40.1562 64.7188 38.0938 64.7188ZM71.8125 72.1406C73.9062 72.125 75.5312 70.4844 75.5156 68.375C75.5 66.3125 73.8438 64.7031 71.7812 64.7188C69.7188 64.7344 68.0938 66.3594 68.0781 68.4219C68.0625 70.5156 69.7188 72.1562 71.8125 72.1406ZM79.2344 61.7031C79.2344 63.4063 79.2344 63.4063 80.7656 63.3438C81.0469 63.3281 81.125 63.25 81.125 62.9844C81.1094 62.2031 81.0938 61.4219 81.125 60.6562C81.1406 60.25 81 60.1875 80.6406 60.1875C79.2344 60.1875 79.2344 60.1875 79.2344 61.5937C79.2344 61.625 79.2344 61.6563 79.2344 61.7031Z" fill="#99999A"/>
<path d="M40.4063 51.2187C40.9375 52.125 41.4688 53.0312 42 53.9375C42.375 54.5937 42.2812 55.1093 41.7656 55.4218C41.25 55.7187 40.7344 55.5469 40.3594 54.9219C39.6875 53.7969 39.0469 52.6719 38.3906 51.5469C38.2031 51.2187 37.5 51 37.1875 51.1719C37 51.2656 37.0781 51.4531 37.0781 51.5937C37.0625 52.5625 37.0781 53.5469 37.0781 54.5156C37.0781 55.1562 36.7031 55.5625 36.1562 55.5781C35.6094 55.5937 35.2031 55.1406 35.2031 54.4843C35.2031 51.6406 35.2031 48.7812 35.2031 45.9375C35.2031 45.2656 35.5625 44.875 36.2344 44.8594C37.5625 44.8437 38.8906 44.8281 40.2188 44.8594C41.4375 44.8906 42.2188 45.75 42.2344 46.9843C42.2344 47.5312 42.2031 48.0781 42.2344 48.625C42.3125 49.8281 41.9844 50.7031 40.4063 51.2187ZM38.5781 49.2656C39.0781 49.2656 39.4844 49.25 39.8906 49.2656C40.2656 49.2968 40.3594 49.1406 40.3438 48.7968C40.3125 48.25 40.3281 47.7031 40.3438 47.1719C40.3594 46.875 40.25 46.7656 39.9531 46.7656C39.3125 46.7812 38.6719 46.7656 38.0312 46.7656C37.0781 46.7656 37.0781 46.7656 37.0781 47.7031C37.0781 48.2031 36.9062 48.875 37.1719 49.1562C37.4687 49.5 38.1562 49.2187 38.5781 49.2656Z" fill="#99999A"/>
<path d="M51.2813 50.2031C51.2813 48.8437 51.2813 47.4687 51.2813 46.1094C51.2813 45.2031 51.625 44.8438 52.5 44.8438C54.0469 44.8438 55.5781 44.8438 57.125 44.8438C57.6562 44.8438 58.0938 44.9687 58.2656 45.5469C58.4688 46.2188 58.0156 46.7656 57.2031 46.7813C56.0781 46.7969 54.9375 46.8281 53.8125 46.7656C53.2656 46.7344 53.1563 46.9219 53.1875 47.4219C53.2344 47.875 53.2188 48.3281 53.1875 48.7656C53.1563 49.1562 53.2656 49.3125 53.6875 49.2813C54.5312 49.25 55.3594 49.2656 56.2031 49.2656C56.8281 49.2656 57.2344 49.6406 57.2344 50.2031C57.2344 50.7656 56.8281 51.1406 56.2031 51.1406C55.3594 51.1406 54.5156 51.1719 53.6875 51.125C53.2656 51.1094 53.1563 51.25 53.1875 51.6406C53.2188 52.1094 53.2344 52.5781 53.1875 53.0469C53.125 53.5625 53.3438 53.6406 53.8125 53.6406C54.9375 53.6094 56.0781 53.625 57.2031 53.6406C57.9062 53.6562 58.3438 54.0625 58.3125 54.6406C58.2813 55.1719 57.8906 55.5469 57.2969 55.5625C55.6406 55.5781 53.9844 55.5781 52.3125 55.5625C51.6094 55.5469 51.2656 55.1406 51.2656 54.3594C51.2656 52.9844 51.2813 51.5937 51.2813 50.2031Z" fill="#99999A"/>
<path d="M43.25 50.2031C43.25 48.7969 43.25 47.3906 43.25 45.9844C43.25 45.1875 43.5937 44.8438 44.3906 44.8281C45.9687 44.8125 47.5469 44.8125 49.1406 44.8281C49.8437 44.8281 50.2969 45.2344 50.2969 45.7969C50.2969 46.3594 49.8281 46.75 49.125 46.75C47.9531 46.7656 46.7812 46.7656 45.6094 46.75C45.2812 46.75 45.1094 46.7812 45.1406 47.1875C45.1719 47.75 45.1719 48.3125 45.1406 48.8906C45.125 49.2188 45.25 49.2656 45.5469 49.2656C46.4219 49.25 47.2969 49.25 48.1875 49.2656C48.8125 49.2656 49.2344 49.6562 49.2344 50.2031C49.2344 50.7344 48.7969 51.1406 48.1875 51.1406C47.3281 51.1406 46.4687 51.1562 45.6094 51.1406C45.2812 51.125 45.1094 51.1875 45.1406 51.5781C45.1875 52.125 45.1719 52.6719 45.1406 53.2187C45.1094 53.6094 45.2656 53.6562 45.6094 53.6562C46.7969 53.6406 47.9844 53.6406 49.1875 53.6562C49.625 53.6562 49.9844 53.7969 50.2031 54.2187C50.375 54.5781 50.3125 54.9062 50.0937 55.2031C49.875 55.4844 49.5625 55.5937 49.2187 55.5937C47.5937 55.5937 45.9844 55.6094 44.3594 55.5937C43.6094 55.5937 43.2812 55.2187 43.2812 54.4531C43.25 53.0156 43.25 51.6094 43.25 50.2031Z" fill="#99999A"/>
<path d="M30.7031 44.8437C31.4844 44.8437 32.2656 44.8281 33.0469 44.8437C33.7656 44.8594 34.1719 45.2344 34.1562 45.8437C34.1406 46.4219 33.7344 46.7812 33.0469 46.7812C31.8594 46.7969 30.6719 46.7969 29.4688 46.7812C29.1563 46.7812 29.0156 46.8437 29.0312 47.1875C29.0625 47.75 29.0469 48.3125 29.0312 48.8906C29.0156 49.1875 29.1094 49.2969 29.4219 49.2812C30.2812 49.2656 31.1406 49.2656 32 49.2812C32.6875 49.2812 33.0781 49.625 33.0937 50.2187C33.0937 50.8125 32.7031 51.1562 32.0156 51.1562C31.1562 51.1562 30.2969 51.1719 29.4375 51.1562C29.125 51.1562 29.0313 51.2344 29.0469 51.5469C29.0625 52.4844 29.0625 53.4219 29.0469 54.3594C29.0469 55.125 28.6719 55.5937 28.0937 55.5937C27.5156 55.5937 27.125 55.125 27.125 54.375C27.125 51.625 27.125 48.875 27.125 46.125C27.125 45.2344 27.4844 44.8906 28.3594 44.875C29.1406 44.8281 29.9219 44.8437 30.7031 44.8437Z" fill="#99999A"/>
<path d="M71.5781 53.2188C69.5469 53.2188 67.5156 53.2188 65.4844 53.2188C64.4688 53.2188 64.1562 52.8906 64.1562 51.8906C64.1562 49.0781 64.1562 46.2656 64.1562 43.4688C64.1562 42.4688 64.4844 42.1562 65.5 42.1562C68.25 42.1562 71 42.1719 73.75 42.1406C74.4219 42.1406 74.8281 42.3906 75.0938 43.0156C76.2969 45.8906 77.5312 48.7656 78.75 51.6406C79.1562 52.5938 78.75 53.2188 77.7031 53.2188C75.6719 53.2344 73.625 53.2188 71.5781 53.2188ZM71.2813 51.2812C72.8594 51.2812 74.4375 51.2656 76.0156 51.2812C76.4062 51.2812 76.5312 51.25 76.3438 50.8125C75.4219 48.7031 74.5313 46.5625 73.6406 44.4375C73.5156 44.125 73.3438 44.0469 73.0313 44.0469C70.8594 44.0625 68.7031 44.0625 66.5313 44.0469C66.1719 44.0469 66.0781 44.1562 66.0781 44.5C66.0938 46.6094 66.0938 48.7188 66.0781 50.8125C66.0781 51.1719 66.1563 51.2813 66.5313 51.2656C68.125 51.2656 69.7031 51.2812 71.2813 51.2812Z" fill="#99999A"/>
<path d="M38.1091 70.0156C37.2029 70.0313 36.4998 69.3594 36.4841 68.4688C36.4685 67.5469 37.156 66.8438 38.0779 66.8438C38.9685 66.8438 39.6716 67.5313 39.6716 68.4219C39.6873 69.3125 38.9998 70.0156 38.1091 70.0156Z" fill="#99999A"/>
<path d="M73.3906 68.4219C73.3906 69.3281 72.7187 70.0156 71.8281 70.0313C70.9062 70.0469 70.2031 69.3438 70.2031 68.4219C70.2031 67.5156 70.8906 66.8438 71.7969 66.8438C72.7031 66.8438 73.3906 67.5156 73.3906 68.4219Z" fill="#99999A"/>
<rect x="1.5" y="1.5" width="103" height="103" rx="51.5" stroke="#CBCBCC" stroke-width="3"/>
</svg>
