<svg width="106" height="106" viewBox="0 0 106 106" fill="none" xmlns="http://www.w3.org/2000/svg">
<path d="M23.0146 44.3014C24.0107 43.6715 24.8603 42.8805 25.7685 42.1481C26.1055 41.8844 26.2373 41.9284 26.4863 42.236C27.8926 44.0231 29.3281 45.8102 30.7637 47.5827C30.8662 47.7145 30.9248 47.8903 31.1738 47.9342C31.4668 46.6745 31.8037 45.4293 32.2431 44.2135C33.6494 40.3756 35.832 37.0505 38.791 34.238C42.0576 31.1325 45.8662 28.9352 50.246 27.8659C58.786 25.7858 66.5643 27.4411 73.4052 32.9636C78.327 36.9333 81.4471 42.1042 82.5311 48.359C84.1864 57.8072 81.4471 65.8932 74.5038 72.4849C70.8124 75.9859 66.3739 78.1099 61.3495 79.0035C60.0019 79.2379 58.6396 79.3257 57.2773 79.4136C56.8818 79.4429 56.7646 79.3257 56.7792 78.9449C56.8085 77.9049 56.8085 76.8795 56.7792 75.8394C56.7646 75.4586 56.8671 75.356 57.2626 75.3414C59.914 75.2535 62.4774 74.7847 64.953 73.8033C67.8681 72.6314 70.4315 70.9322 72.6288 68.691C75.661 65.5855 77.6239 61.8941 78.5028 57.6608C79.0741 54.9508 79.1034 52.1969 78.62 49.4577C77.6678 44.111 75.0897 39.6725 70.9442 36.2009C67.8827 33.6374 64.3671 32.0261 60.3974 31.3962C55.2851 30.5759 50.4658 31.3962 45.9687 33.945C41.4277 36.5085 38.205 40.2585 36.2422 45.0924C35.6416 46.5719 35.2314 48.11 34.9824 49.692C35.1875 49.7506 35.3193 49.6041 35.4658 49.5309C38.1172 48.2125 40.7539 46.9088 43.3906 45.5758C43.7128 45.4147 43.8593 45.4147 44.0351 45.7663C44.4746 46.7184 44.958 47.6559 45.4414 48.5788C45.6025 48.8864 45.6025 49.0182 45.2656 49.1793C41.3984 51.0983 37.5459 53.0319 33.6933 54.9508C32.6094 55.4928 31.6865 55.2731 30.9101 54.2916C28.4199 51.1862 25.9443 48.0807 23.4395 44.9752C23.3076 44.8141 23.2344 44.5944 23 44.5504C23.0146 44.4626 23.0146 44.3747 23.0146 44.3014Z" fill="#99999A"/>
<rect x="1.5" y="1.5" width="103" height="103" rx="51.5" stroke="#CBCBCC" stroke-width="3"/>
</svg>
