<svg width="106" height="106" viewBox="0 0 106 106" fill="none" xmlns="http://www.w3.org/2000/svg">
<path d="M23 33.9145C23.2931 33.3429 23.7328 32.9471 24.4217 33.0204C25.0373 33.0937 25.433 33.592 25.5796 34.3982C25.6089 34.5887 25.6529 34.7792 25.6969 34.9698C26.1805 37.3882 26.6496 39.8212 27.1332 42.2396C27.1479 42.3275 27.1919 42.4301 27.2358 42.5474C27.7195 42.3422 28.0713 42.0051 28.4377 41.6533C29.2292 40.8912 29.9034 40.0264 30.7681 39.3522C33.3917 37.3149 36.8947 37.5787 39.3131 39.9971C39.8408 40.5247 40.3244 41.0817 40.8521 41.6093C42.7282 43.5001 45 43.4854 46.8614 41.5947C47.3597 41.0963 47.8288 40.5687 48.3124 40.0704C51.0533 37.3002 55.0106 37.3002 57.7221 40.085C58.2205 40.5834 58.6895 41.0963 59.1878 41.6093C61.0493 43.5001 63.2771 43.5001 65.1532 41.624C65.7541 41.0084 66.3111 40.3488 66.956 39.7772C69.7701 37.2562 73.4929 37.4175 76.1165 40.129C76.6149 40.642 77.1132 41.1696 77.6262 41.6826C77.9486 42.0197 78.3004 42.3275 78.8134 42.5474C79.0039 41.58 79.2091 40.6273 79.385 39.6893C79.7514 37.8718 80.1032 36.0544 80.4696 34.2516C80.6455 33.3575 81.3051 32.8592 82.0233 33.0351C82.8147 33.2256 83.1372 33.8705 82.9466 34.8232C82.8734 35.1603 82.8294 35.5121 82.7561 35.8638C81.3197 43.0604 79.8833 50.2422 78.447 57.4388C77.6848 61.2789 76.9373 65.119 76.1165 68.9444C75.5596 71.524 73.6102 73.063 70.972 73.063C59.012 73.063 47.0519 73.063 35.1066 73.063C32.3511 73.063 30.4017 71.4507 29.8448 68.6806C28.4524 61.8212 27.0893 54.9471 25.7262 48.073C24.8614 43.7492 23.9967 39.4108 23.1319 35.0724C23.1173 34.9844 23.1319 34.8672 23.0147 34.8379C23 34.5447 23 34.2369 23 33.9145ZM52.944 70.5127C58.9826 70.5127 65.0213 70.5127 71.0599 70.5127C72.4523 70.5127 73.3757 69.7505 73.6542 68.3875C74.475 64.2689 75.2957 60.1503 76.1312 56.017C76.8201 52.602 77.5089 49.1869 78.1978 45.7719C78.2857 45.3322 78.2857 45.0244 77.7728 44.8338C77.1572 44.614 76.6735 44.1889 76.1752 43.7639C75.2811 43.0017 74.5922 42.0344 73.6688 41.3015C72.3497 40.2609 70.371 40.2462 69.0666 41.3015C68.2751 41.9318 67.6155 42.7233 66.912 43.4414C64.2005 46.1969 60.2578 46.2262 57.5316 43.4708C57.0186 42.9578 56.5349 42.4155 56.0366 41.9025C54.1605 40.0117 51.8887 40.0117 50.0273 41.9171C49.5729 42.3715 49.1332 42.8552 48.6935 43.3095C45.8354 46.2556 41.9074 46.2409 39.0346 43.2949C38.3458 42.5767 37.7009 41.8145 36.8947 41.2136C35.6342 40.2609 33.6556 40.2902 32.4244 41.2576C31.7502 41.7999 31.1785 42.4448 30.5776 43.0604C29.9034 43.7492 29.2292 44.4381 28.3204 44.7899C27.7781 45.0097 27.7342 45.3175 27.8368 45.8012C28.3058 48.073 28.7602 50.3448 29.2145 52.6167C30.2552 57.8052 31.2811 62.9937 32.3364 68.1823C32.6735 69.8385 33.509 70.4834 35.1945 70.4834C41.1159 70.5127 47.0226 70.5127 52.944 70.5127Z" fill="#99999A"/>
<rect x="1.5" y="1.5" width="103" height="103" rx="51.5" stroke="#CBCBCC" stroke-width="3"/>
</svg>
